<?xml version="1.0" encoding="utf-8"?>
<!-- Generator: Adobe Illustrator 25.2.3, SVG Export Plug-In . SVG Version: 6.00 Build 0)  -->
<svg version="1.1" id="Capa_1" xmlns="http://www.w3.org/2000/svg" xmlns:xlink="http://www.w3.org/1999/xlink" x="0px" y="0px"
	 viewBox="0 0 173 33" style="enable-background:new 0 0 173 33;" xml:space="preserve">
<style type="text/css">
	.st0{fill:#FFFFFF;}
</style>
<path class="st0" d="M4.2,32.6l2.4-6.9h10.2l2.4,6.9h4.2L14,6.6H9.4L0,32.6H4.2z M7.7,22.4l3.9-11.1h0.2l3.9,11.1H7.7z"/>
<path class="st0" d="M26.9,32.6h3.8V20.7c0-2.6,2-4.4,4.7-4.4c0.8,0,1.7,0.1,2,0.2v-3.6c-0.4-0.1-1.1-0.1-1.6-0.1
	c-2.3,0-4.3,1.3-5,3.4h-0.2v-3.1h-3.7V32.6z"/>
<path class="st0" d="M48.2,33c5.5,0,9.1-4,9.1-10.1c0-6.1-3.6-10.1-9.1-10.1c-5.5,0-9.1,4-9.1,10.1C39.1,29,42.7,33,48.2,33z
	 M48.2,29.8c-3.6,0-5.3-3.1-5.3-6.9c0-3.7,1.7-6.9,5.3-6.9c3.6,0,5.3,3.2,5.3,6.9C53.5,26.7,51.8,29.8,48.2,29.8z"/>
<path class="st0" d="M74.1,24.5c0,3.3-2.5,4.9-4.6,4.9c-2.4,0-4-1.7-4-4.4V13.1h-3.8v12.4c0,4.8,2.7,7.3,6.4,7.3c3,0,5-1.5,5.9-3.6
	h0.2v3.4h3.8V13.1h-3.8V24.5z"/>
<path class="st0" d="M86.9,21c0-3.1,1.9-4.9,4.6-4.9c2.6,0,4.2,1.7,4.2,4.5v11.9h3.8V20.2c0-4.8-2.7-7.3-6.7-7.3
	c-3,0-4.9,1.4-5.8,3.4h-0.2v-3.2H83v19.5h3.8V21z"/>
<path class="st0" d="M111.9,33c3.6,0,5-2.2,5.7-3.4h0.3v3h3.7v-26h-3.8v9.7h-0.2c-0.7-1.2-2-3.4-5.6-3.4c-4.7,0-8.2,3.7-8.2,10
	C103.7,29.2,107.1,33,111.9,33z M112.7,29.8c-3.4,0-5.2-3-5.2-6.9c0-3.9,1.7-6.8,5.2-6.8c3.3,0,5.1,2.7,5.1,6.8
	C117.9,27,116,29.8,112.7,29.8z"/>
<path class="st0" d="M126.6,1h2.7v7.7h1.1V1h2.7V0.1h-6.5V1z"/>
<path class="st0" d="M135.6,4.9c0-1.1,0.7-1.8,1.7-1.8c0.9,0,1.5,0.6,1.5,1.6v4.1h1V4.7c0-1.7-0.9-2.5-2.2-2.5c-1,0-1.6,0.4-1.9,1.1
	h-0.1V0.1h-1v8.7h1V4.9z"/>
<path class="st0" d="M144.5,8.9c1.3,0,2.3-0.7,2.6-1.6l-1-0.3c-0.3,0.7-0.8,1-1.6,1c-1.2,0-2-0.8-2-2.1h4.7V5.4
	c0-2.4-1.4-3.2-2.8-3.2c-1.8,0-2.9,1.4-2.9,3.4S142.6,8.9,144.5,8.9z M142.4,5c0.1-1,0.8-1.9,1.9-1.9c1.1,0,1.8,0.8,1.8,1.9H142.4z"
	/>
<path class="st0" d="M157.9,0.1v5.7c0,1.3-0.9,2.2-2.3,2.2c-1.5,0-2.3-0.9-2.3-2.2V0.1h-1.1v5.7c0,1.8,1.3,3.1,3.4,3.1
	c2.1,0,3.4-1.3,3.4-3.1V0.1H157.9z"/>
<path class="st0" d="M161.3,8.8c0.4,0,0.8-0.3,0.8-0.8c0-0.4-0.3-0.8-0.8-0.8c-0.4,0-0.8,0.3-0.8,0.8C160.5,8.5,160.9,8.8,161.3,8.8
	z"/>
<path class="st0" d="M168.8,2.3h1c0-1.3-1.3-2.3-2.9-2.3c-1.7,0-3,1-3,2.4c0,1.2,0.9,1.9,2.2,2.3l1.1,0.3c0.9,0.3,1.7,0.6,1.7,1.4
	c0,0.9-0.9,1.6-2.1,1.6c-1,0-2-0.5-2-1.4h-1.1c0.1,1.4,1.3,2.4,3.1,2.4c2,0,3.2-1.1,3.2-2.5c0-1.6-1.6-2.1-2.5-2.4l-0.9-0.2
	c-0.6-0.2-1.7-0.5-1.7-1.4c0-0.8,0.8-1.4,1.9-1.4C167.9,0.9,168.7,1.4,168.8,2.3z"/>
<path class="st0" d="M172.2,8.8c0.4,0,0.8-0.3,0.8-0.8c0-0.4-0.3-0.8-0.8-0.8c-0.4,0-0.8,0.3-0.8,0.8C171.5,8.5,171.8,8.8,172.2,8.8
	z"/>
</svg>
